<?xml version="1.0" encoding="UTF-8"?>
<svg viewBox="0 0 720 1152" xmlns="http://www.w3.org/2000/svg">
 <rect width="720" height="1152" fill="#008000"/>
 <g stroke="#bbb">
  <g fill="#59b200" stroke-width="0">
   <rect y="616" x="0" height="78" width="720"/>
   <rect y="456" x="0" height="78" width="720"/>
   <rect y="301" x="0" height="78" width="720"/>
   <rect y="0" x="0" height="78" width="720"/>
   <rect y="1075" x="0" height="78" width="720"/>
   <rect y="145" x="0" height="78" width="720"/>
   <rect y="927" x="0" height="78" width="720"/>
   <rect y="766" x="0" height="78" width="720"/>
  </g>
  <circle cy="575" cx="360" r="91.5" fill-opacity="0" stroke-width="2"/>
  <circle cy="575" cx="360" r="2" fill="#bbb"/>
  <circle cy="160" cx="360" r="2" fill="#bbb"/>
  <circle cy="990" cx="360" r="2" fill="#bbb"/>
  <g stroke-width="2">
   <g fill-opacity="0">
    <path d="m320 50 v -10 h 80 v 10"/>
    <path d="m320 1100 v 10 h 80 v -10"/>
    <path d="m269.4 50 v 55 h 182.2 v -55"/>
    <path d="m269.4 1100 v -55 h 182.2 v 55"/>
    <path d="m160.4 50 v 165 h 402.2 v -165"/>
    <path d="m160.4 1100 v -165 h 402.2 v 165"/>
   </g>
   <g fill="none">
    <path d="m286.88 215 a91.5 91.5 0 0 0 146.25 0 "/>
    <path d="m286.88 935 a91.5 91.5 0 0 1 146.25 0 "/>
   </g>
   <g fill-opacity="0">
    <path d="m690 50 a10 10 0 0 0 10 10"/>
    <path d="m30 50 a10 10 0 0 1 -10 10"/>
    <path d="m690 1100 a10 10 0 0 1 10 -10"/>
    <path d="m30 1100 a10 10 0 0 0 -10 -10"/>
   </g>
  </g>
  <g stroke-width="2">
   <g fill="none">
    <line y1="50" y2="1100" x1="20" x2="20"/>
    <line y1="50" y2="50" x1="20" x2="700"/>
    <line y1="50" y2="1100" x1="700" x2="700"/>
    <line y1="1100" y2="1100" x1="20" x2="700"/>
    <line y1="575" y2="575" x1="20" x2="700"/>
   </g>
  </g>
 </g>
</svg>
